<?xml version="1.0" encoding="utf-8"?>
<!-- Generator: Adobe Illustrator 18.0.0, SVG Export Plug-In . SVG Version: 6.00 Build 0)  -->
<!DOCTYPE svg PUBLIC "-//W3C//DTD SVG 1.1//EN" "http://www.w3.org/Graphics/SVG/1.1/DTD/svg11.dtd">
<svg version="1.1" xmlns="http://www.w3.org/2000/svg" xmlns:xlink="http://www.w3.org/1999/xlink" x="0px" y="0px" width="80px"
	 height="21px" viewBox="0 0 80 21" enable-background="new 0 0 80 21" xml:space="preserve">
<g id="Layer_1" display="none">
	<g display="inline">
		<path fill="none" d="M49.5,19.5c-4.9,0-9-4-9-9s4-9,9-9s9,4,9,9S54.4,19.5,49.5,19.5z"/>
		<g>
			<path fill="#CCCCCC" d="M49.5,2.1c4.6,0,8.4,3.8,8.4,8.4c0,4.6-3.8,8.4-8.4,8.4s-8.4-3.8-8.4-8.4S44.9,2.1,49.5,2.1 M49.5,1
				C44.3,1,40,5.3,40,10.5c0,5.2,4.3,9.5,9.5,9.5s9.5-4.3,9.5-9.5C59,5.3,54.7,1,49.5,1L49.5,1z"/>
		</g>
	</g>
	<g display="inline">
		<path fill="none" d="M69.5,19.5c-4.9,0-9-4-9-9s4-9,9-9s8.9,4,8.9,9S74.4,19.5,69.5,19.5z"/>
		<g>
			<path fill="#CCCCCC" d="M69.5,2.1c4.6,0,8.4,3.8,8.4,8.4c0,4.6-3.8,8.4-8.4,8.4s-8.4-3.8-8.4-8.4S64.9,2.1,69.5,2.1 M69.5,1
				C64.3,1,60,5.3,60,10.5c0,5.2,4.3,9.5,9.5,9.5s9.5-4.3,9.5-9.5C79,5.3,74.7,1,69.5,1L69.5,1z"/>
		</g>
	</g>
	<g display="inline">
		<circle fill="#333333" cx="69.5" cy="10.5" r="4.6"/>
	</g>
	<g display="inline">
		<rect x="0.5" y="1.5" fill="none" width="17.9" height="17.9"/>
		<path fill="#CCCCCC" d="M17.9,2.1v16.9H1.1V2.1H17.9 M19,1H0v19h19V1L19,1z"/>
	</g>
	<g display="inline">
		<rect x="20.5" y="1.5" fill="none" width="17.9" height="17.9"/>
		<path fill="#CCCCCC" d="M37.9,2.1v16.9H21.1V2.1H37.9 M39,1H20v19h19V1L39,1z"/>
	</g>
	<g display="inline">
		<path fill="#333333" d="M23.5,11l2-2.1l2.7,2.6l5.2-6.3l2.1,1.8l-7.3,8.6L23.5,11z"/>
	</g>
</g>
<g id="Layer_2">
	<g>
		<path fill="#FFFFFF" d="M49.5,19.5c-4.9,0-9-4-9-9s4-9,9-9s9,4,9,9S54.4,19.5,49.5,19.5z"/>
		<g>
			<path fill="#CCCCCC" d="M49.5,2.1c4.6,0,8.4,3.8,8.4,8.4c0,4.6-3.8,8.4-8.4,8.4s-8.4-3.8-8.4-8.4S44.9,2.1,49.5,2.1 M49.5,1
				C44.3,1,40,5.3,40,10.5c0,5.2,4.3,9.5,9.5,9.5s9.5-4.3,9.5-9.5C59,5.3,54.7,1,49.5,1L49.5,1z"/>
		</g>
	</g>
	<g>
		<path fill="#FFFFFF" d="M69.5,19.5c-4.9,0-9-4-9-9s4-9,9-9s8.9,4,8.9,9S74.4,19.5,69.5,19.5z"/>
		<g opacity="0.5">
			<path fill="#004B91" d="M69.5,2.1c4.6,0,8.4,3.8,8.4,8.4c0,4.6-3.8,8.4-8.4,8.4s-8.4-3.8-8.4-8.4S64.9,2.1,69.5,2.1 M69.5,1
				C64.3,1,60,5.3,60,10.5c0,5.2,4.3,9.5,9.5,9.5s9.5-4.3,9.5-9.5C79,5.3,74.7,1,69.5,1L69.5,1z"/>
		</g>
	</g>
	<g>
		<circle fill="#004B91" cx="69.5" cy="10.5" r="4.6"/>
	</g>
	<g>
		<rect x="0.5" y="1.5" fill="#FFFFFF" width="17.9" height="17.9"/>
		<path fill="#CCCCCC" d="M17.9,2.1v16.9H1.1V2.1H17.9 M19,1H0v19h19V1L19,1z"/>
	</g>
	<g opacity="0.5">
		<rect x="20.5" y="1.5" fill="#FFFFFF" width="17.9" height="17.9"/>
		<path fill="#004B91" d="M37.9,2.1v16.9H21.1V2.1H37.9 M39,1H20v19h19V1L39,1z"/>
	</g>
	<g>
		<path fill="#004B91" d="M23.5,11l2-2.1l2.7,2.6l5.2-6.3l2.1,1.8l-7.3,8.6L23.5,11z"/>
	</g>
</g>
</svg>
